<?xml version="1.0" encoding="UTF-8"?>
      <mxfile host="codeviz.app" modified="2025-07-05T11:05:58.412Z" agent="CodeViz Exporter" version="14.6.5" type="device">
        <diagram id="codeviz-diagram" name="System Diagram">
          <mxGraphModel dx="1000" dy="1000" grid="1" gridSize="10" guides="1" tooltips="1" connect="1" arrows="1" fold="1" page="1" pageScale="1" pageWidth="1169" pageHeight="827" math="0" shadow="0">
            <root>
              <mxCell id="0"/>
              <mxCell id="1" parent="0"/>
              <mxCell id="section-diagram-5bbf30b0ea00a8905896c60dfb30f44a-Arquitectura-de-Alto-Nivel-wrapper" value="" style="html=1;whiteSpace=wrap;container=1;fillColor=#dae8fc;strokeColor=#6c8ebf;dashed=1;fillOpacity=20;strokeWidth=2;containerType=none;recursiveResize=0;movable=1;resizable=1;autosize=0;dropTarget=0" vertex="1" parent="search-results-group-5bbf30b0ea00a8905896c60dfb30f44a">
                <mxGeometry x="730" y="470" width="240" height="700" as="geometry"/>
              </mxCell>
              <mxCell id="section-diagram-5bbf30b0ea00a8905896c60dfb30f44a-Arquitectura-de-Alto-Nivel-wrapper_label" value="Arquitectura de Alto Nivel" style="edgeLabel;html=1;align=center;verticalAlign=middle;resizable=0;labelBackgroundColor=white;spacing=5" vertex="1" parent="search-results-group-5bbf30b0ea00a8905896c60dfb30f44a">
                <mxGeometry x="738" y="478" width="164" height="24" as="geometry"/>
              </mxCell>
<mxCell id="section-diagram-5bbf30b0ea00a8905896c60dfb30f44a-Componentes-del-Backend-wrapper" value="" style="html=1;whiteSpace=wrap;container=1;fillColor=#dae8fc;strokeColor=#6c8ebf;dashed=1;fillOpacity=20;strokeWidth=2;containerType=none;recursiveResize=0;movable=1;resizable=1;autosize=0;dropTarget=0" vertex="1" parent="search-results-group-5bbf30b0ea00a8905896c60dfb30f44a">
                <mxGeometry x="960" y="460" width="540" height="380" as="geometry"/>
              </mxCell>
              <mxCell id="section-diagram-5bbf30b0ea00a8905896c60dfb30f44a-Componentes-del-Backend-wrapper_label" value="Componentes del Backend" style="edgeLabel;html=1;align=center;verticalAlign=middle;resizable=0;labelBackgroundColor=white;spacing=5" vertex="1" parent="search-results-group-5bbf30b0ea00a8905896c60dfb30f44a">
                <mxGeometry x="968" y="468" width="464" height="24" as="geometry"/>
              </mxCell>
<mxCell id="section-diagram-5bbf30b0ea00a8905896c60dfb30f44a-Componentes-del-Frontend-wrapper" value="" style="html=1;whiteSpace=wrap;container=1;fillColor=#dae8fc;strokeColor=#6c8ebf;dashed=1;fillOpacity=20;strokeWidth=2;containerType=none;recursiveResize=0;movable=1;resizable=1;autosize=0;dropTarget=0" vertex="1" parent="search-results-group-5bbf30b0ea00a8905896c60dfb30f44a">
                <mxGeometry x="50" y="470" width="690" height="700" as="geometry"/>
              </mxCell>
              <mxCell id="section-diagram-5bbf30b0ea00a8905896c60dfb30f44a-Componentes-del-Frontend-wrapper_label" value="Componentes del Frontend" style="edgeLabel;html=1;align=center;verticalAlign=middle;resizable=0;labelBackgroundColor=white;spacing=5" vertex="1" parent="search-results-group-5bbf30b0ea00a8905896c60dfb30f44a">
                <mxGeometry x="58" y="478" width="614" height="24" as="geometry"/>
              </mxCell>
<mxCell id="section-diagram-5bbf30b0ea00a8905896c60dfb30f44a-Archivos-de-Configuración-y-Raíz-del-Proyecto-wrapper" value="" style="html=1;whiteSpace=wrap;container=1;fillColor=#dae8fc;strokeColor=#6c8ebf;dashed=1;fillOpacity=20;strokeWidth=2;containerType=none;recursiveResize=0;movable=1;resizable=1;autosize=0;dropTarget=0" vertex="1" parent="search-results-group-5bbf30b0ea00a8905896c60dfb30f44a">
                <mxGeometry x="1490" y="450" width="990" height="400" as="geometry"/>
              </mxCell>
              <mxCell id="section-diagram-5bbf30b0ea00a8905896c60dfb30f44a-Archivos-de-Configuración-y-Raíz-del-Proyecto-wrapper_label" value="Archivos de Configuración y Raíz del Proyecto" style="edgeLabel;html=1;align=center;verticalAlign=middle;resizable=0;labelBackgroundColor=white;spacing=5" vertex="1" parent="search-results-group-5bbf30b0ea00a8905896c60dfb30f44a">
                <mxGeometry x="1498" y="458" width="914" height="24" as="geometry"/>
              </mxCell>
<mxCell id="section-diagram-5bbf30b0ea00a8905896c60dfb30f44a-Activos-Públicos-wrapper" value="" style="html=1;whiteSpace=wrap;container=1;fillColor=#dae8fc;strokeColor=#6c8ebf;dashed=1;fillOpacity=20;strokeWidth=2;containerType=none;recursiveResize=0;movable=1;resizable=1;autosize=0;dropTarget=0" vertex="1" parent="search-results-group-5bbf30b0ea00a8905896c60dfb30f44a">
                <mxGeometry x="2470" y="440" width="990" height="390" as="geometry"/>
              </mxCell>
              <mxCell id="section-diagram-5bbf30b0ea00a8905896c60dfb30f44a-Activos-Públicos-wrapper_label" value="Activos Públicos" style="edgeLabel;html=1;align=center;verticalAlign=middle;resizable=0;labelBackgroundColor=white;spacing=5" vertex="1" parent="search-results-group-5bbf30b0ea00a8905896c60dfb30f44a">
                <mxGeometry x="2478" y="448" width="914" height="24" as="geometry"/>
              </mxCell>
              <mxCell id="search-results-group-5bbf30b0ea00a8905896c60dfb30f44a" value="Search Results" style="rounded=1;whiteSpace=wrap;html=1;fillColor=#f5f5f5" vertex="1" parent="1">
                    <mxGeometry x="12" y="12" width="3450" height="1160" as="geometry"/>
                  </mxCell>
<mxCell id="terminal-5bbf30b0ea00a8905896c60dfb30f44a" value="Terminal" style="rounded=1;whiteSpace=wrap;html=1;fillColor=#f5f5f5" vertex="1" parent="1">
                    <mxGeometry x="1677" y="1372" width="120" height="60" as="geometry"/>
                  </mxCell>
<mxCell id="search-result-5bbf30b0ea00a8905896c60dfb30f44a" value="" style="rounded=1;whiteSpace=wrap;html=1;fillColor=#f5f5f5" vertex="1" parent="search-results-group-5bbf30b0ea00a8905896c60dfb30f44a">
                    <mxGeometry x="345" y="80" width="120" height="60" as="geometry"/>
                  </mxCell>
<mxCell id="backend_5bbf30b0ea00a8905896c60dfb30f44a_section_section-diagram-5bbf30b0ea00a8905896c60dfb30f44a-Arquitectura-de-Alto-Nivel" value="Backend&lt;br&gt;Node.js/Express" style="rounded=1;whiteSpace=wrap;html=1;fillColor=#f5f5f5" vertex="1" parent="section-diagram-5bbf30b0ea00a8905896c60dfb30f44a-Arquitectura-de-Alto-Nivel-wrapper">
                    <mxGeometry x="40" y="440" width="120" height="60" as="geometry"/>
                  </mxCell>
<mxCell id="browser_5bbf30b0ea00a8905896c60dfb30f44a_section_section-diagram-5bbf30b0ea00a8905896c60dfb30f44a-Arquitectura-de-Alto-Nivel" value="Navegador Web&lt;br&gt;User Interface" style="rounded=1;whiteSpace=wrap;html=1;fillColor=#f5f5f5" vertex="1" parent="section-diagram-5bbf30b0ea00a8905896c60dfb30f44a-Arquitectura-de-Alto-Nivel-wrapper">
                    <mxGeometry x="40" y="120" width="120" height="60" as="geometry"/>
                  </mxCell>
<mxCell id="database_5bbf30b0ea00a8905896c60dfb30f44a_section_section-diagram-5bbf30b0ea00a8905896c60dfb30f44a-Arquitectura-de-Alto-Nivel" value="Base de Datos&lt;br&gt;Data Persistence" style="rounded=1;whiteSpace=wrap;html=1;fillColor=#f5f5f5" vertex="1" parent="section-diagram-5bbf30b0ea00a8905896c60dfb30f44a-Arquitectura-de-Alto-Nivel-wrapper">
                    <mxGeometry x="40" y="600" width="120" height="60" as="geometry"/>
                  </mxCell>
<mxCell id="frontend_5bbf30b0ea00a8905896c60dfb30f44a_section_section-diagram-5bbf30b0ea00a8905896c60dfb30f44a-Arquitectura-de-Alto-Nivel" value="Frontend&lt;br&gt;React/TS" style="rounded=1;whiteSpace=wrap;html=1;fillColor=#f5f5f5" vertex="1" parent="section-diagram-5bbf30b0ea00a8905896c60dfb30f44a-Arquitectura-de-Alto-Nivel-wrapper">
                    <mxGeometry x="40" y="280" width="120" height="60" as="geometry"/>
                  </mxCell>
<mxCell id="authMiddleware_5bbf30b0ea00a8905896c60dfb30f44a_section_section-diagram-5bbf30b0ea00a8905896c60dfb30f44a-Componentes-del-Backend" value="Autenticación&lt;br&gt;Middleware" style="rounded=1;whiteSpace=wrap;html=1;fillColor=#f5f5f5" vertex="1" parent="section-diagram-5bbf30b0ea00a8905896c60dfb30f44a-Componentes-del-Backend-wrapper">
                    <mxGeometry x="340" y="260" width="120" height="60" as="geometry"/>
                  </mxCell>
<mxCell id="backendEntry_5bbf30b0ea00a8905896c60dfb30f44a_section_section-diagram-5bbf30b0ea00a8905896c60dfb30f44a-Componentes-del-Backend" value="Punto de Entrada&lt;br&gt;Node.js Server" style="rounded=1;whiteSpace=wrap;html=1;fillColor=#f5f5f5" vertex="1" parent="section-diagram-5bbf30b0ea00a8905896c60dfb30f44a-Componentes-del-Backend-wrapper">
                    <mxGeometry x="76" y="120" width="120" height="60" as="geometry"/>
                  </mxCell>
<mxCell id="envConfig_5bbf30b0ea00a8905896c60dfb30f44a_section_section-diagram-5bbf30b0ea00a8905896c60dfb30f44a-Componentes-del-Backend" value="Variables de Entorno&lt;br&gt;Configuration" style="rounded=1;whiteSpace=wrap;html=1;fillColor=#f5f5f5" vertex="1" parent="section-diagram-5bbf30b0ea00a8905896c60dfb30f44a-Componentes-del-Backend-wrapper">
                    <mxGeometry x="40" y="280" width="120" height="60" as="geometry"/>
                  </mxCell>
<mxCell id="packageJson_5bbf30b0ea00a8905896c60dfb30f44a_section_section-diagram-5bbf30b0ea00a8905896c60dfb30f44a-Componentes-del-Backend" value="Configuración Dependencias&lt;br&gt;NPM Config" style="rounded=1;whiteSpace=wrap;html=1;fillColor=#f5f5f5" vertex="1" parent="section-diagram-5bbf30b0ea00a8905896c60dfb30f44a-Componentes-del-Backend-wrapper">
                    <mxGeometry x="190" y="270" width="120" height="60" as="geometry"/>
                  </mxCell>
<mxCell id="activityModal_5bbf30b0ea00a8905896c60dfb30f44a_section_section-diagram-5bbf30b0ea00a8905896c60dfb30f44a-Componentes-del-Frontend" value="ActivityDetailModal&lt;br&gt;React Component" style="rounded=1;whiteSpace=wrap;html=1;fillColor=#f5f5f5" vertex="1" parent="section-diagram-5bbf30b0ea00a8905896c60dfb30f44a-Componentes-del-Frontend-wrapper">
                    <mxGeometry x="190" y="570" width="120" height="60" as="geometry"/>
                  </mxCell>
<mxCell id="appComponent_5bbf30b0ea00a8905896c60dfb30f44a_section_section-diagram-5bbf30b0ea00a8905896c60dfb30f44a-Componentes-del-Frontend" value="Componente Principal&lt;br&gt;React Component" style="rounded=1;whiteSpace=wrap;html=1;fillColor=#f5f5f5" vertex="1" parent="section-diagram-5bbf30b0ea00a8905896c60dfb30f44a-Componentes-del-Frontend-wrapper">
                    <mxGeometry x="90" y="280" width="120" height="60" as="geometry"/>
                  </mxCell>
<mxCell id="appCss_5bbf30b0ea00a8905896c60dfb30f44a_section_section-diagram-5bbf30b0ea00a8905896c60dfb30f44a-Componentes-del-Frontend" value="App.css&lt;br&gt;Stylesheet" style="rounded=1;whiteSpace=wrap;html=1;fillColor=#f5f5f5" vertex="1" parent="section-diagram-5bbf30b0ea00a8905896c60dfb30f44a-Componentes-del-Frontend-wrapper">
                    <mxGeometry x="490" y="410" width="120" height="60" as="geometry"/>
                  </mxCell>
<mxCell id="authFetchHook_5bbf30b0ea00a8905896c60dfb30f44a_section_section-diagram-5bbf30b0ea00a8905896c60dfb30f44a-Componentes-del-Frontend" value="useAuthFetch&lt;br&gt;Custom Hook" style="rounded=1;whiteSpace=wrap;html=1;fillColor=#f5f5f5" vertex="1" parent="section-diagram-5bbf30b0ea00a8905896c60dfb30f44a-Componentes-del-Frontend-wrapper">
                    <mxGeometry x="340" y="580" width="120" height="60" as="geometry"/>
                  </mxCell>
<mxCell id="componentsFolder_5bbf30b0ea00a8905896c60dfb30f44a_section_section-diagram-5bbf30b0ea00a8905896c60dfb30f44a-Componentes-del-Frontend" value="Componentes Reutilizables&lt;br&gt;React Components" style="rounded=1;whiteSpace=wrap;html=1;fillColor=#f5f5f5" vertex="1" parent="section-diagram-5bbf30b0ea00a8905896c60dfb30f44a-Componentes-del-Frontend-wrapper">
                    <mxGeometry x="60" y="440" width="120" height="60" as="geometry"/>
                  </mxCell>
<mxCell id="frontendEntry_5bbf30b0ea00a8905896c60dfb30f44a_section_section-diagram-5bbf30b0ea00a8905896c60dfb30f44a-Componentes-del-Frontend" value="Punto de Entrada&lt;br&gt;React App" style="rounded=1;whiteSpace=wrap;html=1;fillColor=#f5f5f5" vertex="1" parent="section-diagram-5bbf30b0ea00a8905896c60dfb30f44a-Componentes-del-Frontend-wrapper">
                    <mxGeometry x="110" y="120" width="120" height="60" as="geometry"/>
                  </mxCell>
<mxCell id="historyModal_5bbf30b0ea00a8905896c60dfb30f44a_section_section-diagram-5bbf30b0ea00a8905896c60dfb30f44a-Componentes-del-Frontend" value="HistoryModal&lt;br&gt;React Component" style="rounded=1;whiteSpace=wrap;html=1;fillColor=#f5f5f5" vertex="1" parent="section-diagram-5bbf30b0ea00a8905896c60dfb30f44a-Componentes-del-Frontend-wrapper">
                    <mxGeometry x="40" y="600" width="120" height="60" as="geometry"/>
                  </mxCell>
<mxCell id="hooksFolder_5bbf30b0ea00a8905896c60dfb30f44a_section_section-diagram-5bbf30b0ea00a8905896c60dfb30f44a-Componentes-del-Frontend" value="Hooks Personalizados&lt;br&gt;React Hooks" style="rounded=1;whiteSpace=wrap;html=1;fillColor=#f5f5f5" vertex="1" parent="section-diagram-5bbf30b0ea00a8905896c60dfb30f44a-Componentes-del-Frontend-wrapper">
                    <mxGeometry x="340" y="420" width="120" height="60" as="geometry"/>
                  </mxCell>
<mxCell id="indexCss_5bbf30b0ea00a8905896c60dfb30f44a_section_section-diagram-5bbf30b0ea00a8905896c60dfb30f44a-Componentes-del-Frontend" value="index.css&lt;br&gt;Stylesheet" style="rounded=1;whiteSpace=wrap;html=1;fillColor=#f5f5f5" vertex="1" parent="section-diagram-5bbf30b0ea00a8905896c60dfb30f44a-Componentes-del-Frontend-wrapper">
                    <mxGeometry x="240" y="250" width="120" height="60" as="geometry"/>
                  </mxCell>
<mxCell id="claudeMd_5bbf30b0ea00a8905896c60dfb30f44a_section_section-diagram-5bbf30b0ea00a8905896c60dfb30f44a-Archivos-de-Configuración-y-Raíz-del-Proyecto" value="Notas Claude&lt;br&gt;Markdown" style="rounded=1;whiteSpace=wrap;html=1;fillColor=#f5f5f5" vertex="1" parent="section-diagram-5bbf30b0ea00a8905896c60dfb30f44a-Archivos-de-Configuración-y-Raíz-del-Proyecto-wrapper">
                    <mxGeometry x="198.57142857142856" y="120" width="120" height="60" as="geometry"/>
                  </mxCell>
<mxCell id="gitignore_5bbf30b0ea00a8905896c60dfb30f44a_section_section-diagram-5bbf30b0ea00a8905896c60dfb30f44a-Archivos-de-Configuración-y-Raíz-del-Proyecto" value="Control de Versiones&lt;br&gt;Git Config" style="rounded=1;whiteSpace=wrap;html=1;fillColor=#f5f5f5" vertex="1" parent="section-diagram-5bbf30b0ea00a8905896c60dfb30f44a-Archivos-de-Configuración-y-Raíz-del-Proyecto-wrapper">
                    <mxGeometry x="190" y="280" width="120" height="60" as="geometry"/>
                  </mxCell>
<mxCell id="packageJsonRoot_5bbf30b0ea00a8905896c60dfb30f44a_section_section-diagram-5bbf30b0ea00a8905896c60dfb30f44a-Archivos-de-Configuración-y-Raíz-del-Proyecto" value="Gestión de Paquetes&lt;br&gt;NPM Config" style="rounded=1;whiteSpace=wrap;html=1;fillColor=#f5f5f5" vertex="1" parent="section-diagram-5bbf30b0ea00a8905896c60dfb30f44a-Archivos-de-Configuración-y-Raíz-del-Proyecto-wrapper">
                    <mxGeometry x="348.57142857142856" y="140" width="120" height="60" as="geometry"/>
                  </mxCell>
<mxCell id="packageLockJson_5bbf30b0ea00a8905896c60dfb30f44a_section_section-diagram-5bbf30b0ea00a8905896c60dfb30f44a-Archivos-de-Configuración-y-Raíz-del-Proyecto" value="Lockfile&lt;br&gt;NPM Lock" style="rounded=1;whiteSpace=wrap;html=1;fillColor=#f5f5f5" vertex="1" parent="section-diagram-5bbf30b0ea00a8905896c60dfb30f44a-Archivos-de-Configuración-y-Raíz-del-Proyecto-wrapper">
                    <mxGeometry x="490" y="290" width="120" height="60" as="geometry"/>
                  </mxCell>
<mxCell id="postcssConfig_5bbf30b0ea00a8905896c60dfb30f44a_section_section-diagram-5bbf30b0ea00a8905896c60dfb30f44a-Archivos-de-Configuración-y-Raíz-del-Proyecto" value="PostCSS Config&lt;br&gt;CSS Processor" style="rounded=1;whiteSpace=wrap;html=1;fillColor=#f5f5f5" vertex="1" parent="section-diagram-5bbf30b0ea00a8905896c60dfb30f44a-Archivos-de-Configuración-y-Raíz-del-Proyecto-wrapper">
                    <mxGeometry x="790" y="270" width="120" height="60" as="geometry"/>
                  </mxCell>
<mxCell id="promptTxt_5bbf30b0ea00a8905896c60dfb30f44a_section_section-diagram-5bbf30b0ea00a8905896c60dfb30f44a-Archivos-de-Configuración-y-Raíz-del-Proyecto" value="Prompt Agrícola&lt;br&gt;Text File" style="rounded=1;whiteSpace=wrap;html=1;fillColor=#f5f5f5" vertex="1" parent="section-diagram-5bbf30b0ea00a8905896c60dfb30f44a-Archivos-de-Configuración-y-Raíz-del-Proyecto-wrapper">
                    <mxGeometry x="498.57142857142856" y="130" width="120" height="60" as="geometry"/>
                  </mxCell>
<mxCell id="readme_5bbf30b0ea00a8905896c60dfb30f44a_section_section-diagram-5bbf30b0ea00a8905896c60dfb30f44a-Archivos-de-Configuración-y-Raíz-del-Proyecto" value="Documentación Principal&lt;br&gt;Markdown" style="rounded=1;whiteSpace=wrap;html=1;fillColor=#f5f5f5" vertex="1" parent="section-diagram-5bbf30b0ea00a8905896c60dfb30f44a-Archivos-de-Configuración-y-Raíz-del-Proyecto-wrapper">
                    <mxGeometry x="340" y="300" width="120" height="60" as="geometry"/>
                  </mxCell>
<mxCell id="tailwindConfig_5bbf30b0ea00a8905896c60dfb30f44a_section_section-diagram-5bbf30b0ea00a8905896c60dfb30f44a-Archivos-de-Configuración-y-Raíz-del-Proyecto" value="Tailwind CSS Config&lt;br&gt;CSS Framework" style="rounded=1;whiteSpace=wrap;html=1;fillColor=#f5f5f5" vertex="1" parent="section-diagram-5bbf30b0ea00a8905896c60dfb30f44a-Archivos-de-Configuración-y-Raíz-del-Proyecto-wrapper">
                    <mxGeometry x="640" y="280" width="120" height="60" as="geometry"/>
                  </mxCell>
<mxCell id="tsconfig_5bbf30b0ea00a8905896c60dfb30f44a_section_section-diagram-5bbf30b0ea00a8905896c60dfb30f44a-Archivos-de-Configuración-y-Raíz-del-Proyecto" value="Configuración TypeScript&lt;br&gt;Compiler Config" style="rounded=1;whiteSpace=wrap;html=1;fillColor=#f5f5f5" vertex="1" parent="section-diagram-5bbf30b0ea00a8905896c60dfb30f44a-Archivos-de-Configuración-y-Raíz-del-Proyecto-wrapper">
                    <mxGeometry x="40" y="270" width="120" height="60" as="geometry"/>
                  </mxCell>
<mxCell id="favicon_5bbf30b0ea00a8905896c60dfb30f44a_section_section-diagram-5bbf30b0ea00a8905896c60dfb30f44a-Activos-Públicos" value="Favicon&lt;br&gt;Icon" style="rounded=1;whiteSpace=wrap;html=1;fillColor=#f5f5f5" vertex="1" parent="section-diagram-5bbf30b0ea00a8905896c60dfb30f44a-Activos-Públicos-wrapper">
                    <mxGeometry x="190" y="290" width="120" height="60" as="geometry"/>
                  </mxCell>
<mxCell id="indexHtml_5bbf30b0ea00a8905896c60dfb30f44a_section_section-diagram-5bbf30b0ea00a8905896c60dfb30f44a-Activos-Públicos" value="Punto de Entrada HTML&lt;br&gt;Web Page" style="rounded=1;whiteSpace=wrap;html=1;fillColor=#f5f5f5" vertex="1" parent="section-diagram-5bbf30b0ea00a8905896c60dfb30f44a-Activos-Públicos-wrapper">
                    <mxGeometry x="490" y="270" width="120" height="60" as="geometry"/>
                  </mxCell>
<mxCell id="logo192_5bbf30b0ea00a8905896c60dfb30f44a_section_section-diagram-5bbf30b0ea00a8905896c60dfb30f44a-Activos-Públicos" value="Icono PWA&lt;br&gt;Image" style="rounded=1;whiteSpace=wrap;html=1;fillColor=#f5f5f5" vertex="1" parent="section-diagram-5bbf30b0ea00a8905896c60dfb30f44a-Activos-Públicos-wrapper">
                    <mxGeometry x="640" y="260" width="120" height="60" as="geometry"/>
                  </mxCell>
<mxCell id="logo512_5bbf30b0ea00a8905896c60dfb30f44a_section_section-diagram-5bbf30b0ea00a8905896c60dfb30f44a-Activos-Públicos" value="Icono PWA&lt;br&gt;Image" style="rounded=1;whiteSpace=wrap;html=1;fillColor=#f5f5f5" vertex="1" parent="section-diagram-5bbf30b0ea00a8905896c60dfb30f44a-Activos-Públicos-wrapper">
                    <mxGeometry x="790" y="250" width="120" height="60" as="geometry"/>
                  </mxCell>
<mxCell id="manifestJson_5bbf30b0ea00a8905896c60dfb30f44a_section_section-diagram-5bbf30b0ea00a8905896c60dfb30f44a-Activos-Públicos" value="Manifiesto PWA&lt;br&gt;Web App Config" style="rounded=1;whiteSpace=wrap;html=1;fillColor=#f5f5f5" vertex="1" parent="section-diagram-5bbf30b0ea00a8905896c60dfb30f44a-Activos-Públicos-wrapper">
                    <mxGeometry x="40" y="280" width="120" height="60" as="geometry"/>
                  </mxCell>
<mxCell id="publicFolder_5bbf30b0ea00a8905896c60dfb30f44a_section_section-diagram-5bbf30b0ea00a8905896c60dfb30f44a-Activos-Públicos" value="Activos Públicos&lt;br&gt;Static Assets" style="rounded=1;whiteSpace=wrap;html=1;fillColor=#f5f5f5" vertex="1" parent="section-diagram-5bbf30b0ea00a8905896c60dfb30f44a-Activos-Públicos-wrapper">
                    <mxGeometry x="82.85714285714286" y="120" width="120" height="60" as="geometry"/>
                  </mxCell>
<mxCell id="robotsTxt_5bbf30b0ea00a8905896c60dfb30f44a_section_section-diagram-5bbf30b0ea00a8905896c60dfb30f44a-Activos-Públicos" value="Robots.txt&lt;br&gt;SEO Config" style="rounded=1;whiteSpace=wrap;html=1;fillColor=#f5f5f5" vertex="1" parent="section-diagram-5bbf30b0ea00a8905896c60dfb30f44a-Activos-Públicos-wrapper">
                    <mxGeometry x="340" y="280" width="120" height="60" as="geometry"/>
                  </mxCell>
<mxCell id="report-section-5bbf30b0ea00a8905896c60dfb30f44a-0" value="" style="rounded=1;whiteSpace=wrap;html=1;fillColor=#f5f5f5" vertex="1" parent="search-results-group-5bbf30b0ea00a8905896c60dfb30f44a">
                    <mxGeometry x="345" y="190" width="120" height="60" as="geometry"/>
                  </mxCell>
<mxCell id="report-section-5bbf30b0ea00a8905896c60dfb30f44a-1" value="" style="rounded=1;whiteSpace=wrap;html=1;fillColor=#f5f5f5" vertex="1" parent="search-results-group-5bbf30b0ea00a8905896c60dfb30f44a">
                    <mxGeometry x="760" y="300" width="120" height="60" as="geometry"/>
                  </mxCell>
<mxCell id="report-section-5bbf30b0ea00a8905896c60dfb30f44a-2" value="" style="rounded=1;whiteSpace=wrap;html=1;fillColor=#f5f5f5" vertex="1" parent="search-results-group-5bbf30b0ea00a8905896c60dfb30f44a">
                    <mxGeometry x="1140" y="290" width="120" height="60" as="geometry"/>
                  </mxCell>
<mxCell id="report-section-5bbf30b0ea00a8905896c60dfb30f44a-3" value="" style="rounded=1;whiteSpace=wrap;html=1;fillColor=#f5f5f5" vertex="1" parent="search-results-group-5bbf30b0ea00a8905896c60dfb30f44a">
                    <mxGeometry x="305" y="300" width="120" height="60" as="geometry"/>
                  </mxCell>
<mxCell id="report-section-5bbf30b0ea00a8905896c60dfb30f44a-4" value="" style="rounded=1;whiteSpace=wrap;html=1;fillColor=#f5f5f5" vertex="1" parent="search-results-group-5bbf30b0ea00a8905896c60dfb30f44a">
                    <mxGeometry x="1895" y="280" width="120" height="60" as="geometry"/>
                  </mxCell>
<mxCell id="report-section-5bbf30b0ea00a8905896c60dfb30f44a-5" value="" style="rounded=1;whiteSpace=wrap;html=1;fillColor=#f5f5f5" vertex="1" parent="search-results-group-5bbf30b0ea00a8905896c60dfb30f44a">
                    <mxGeometry x="2875" y="270" width="120" height="60" as="geometry"/>
                  </mxCell>
              <mxCell id="edge-edge-search-to-terminal-5bbf30b0ea00a8905896c60dfb30f44a" style="edgeStyle=orthogonalEdgeStyle;rounded=1;orthogonalLoop=1;jettySize=auto;html=1;strokeColor=#808080;strokeWidth=2;jumpStyle=arc;jumpSize=10;spacing=15;labelBackgroundColor=white;labelBorderColor=none" edge="1" parent="1" source="search-results-group-5bbf30b0ea00a8905896c60dfb30f44a" target="terminal-5bbf30b0ea00a8905896c60dfb30f44a">
                  <mxGeometry relative="1" as="geometry"/>
                </mxCell>
                <mxCell id="edge-edge-search-to-terminal-5bbf30b0ea00a8905896c60dfb30f44a_label" value="Provides context to" style="edgeLabel;html=1;align=center;verticalAlign=middle;resizable=0;points=[];" vertex="1" connectable="0" parent="edge-edge-search-to-terminal-5bbf30b0ea00a8905896c60dfb30f44a">
                  <mxGeometry x="-0.2" y="10" relative="1" as="geometry">
                    <mxPoint as="offset"/>
                  </mxGeometry>
                </mxCell>
<mxCell id="edge-L_frontend_backend_0_5bbf30b0ea00a8905896c60dfb30f44a_section_section-diagram-5bbf30b0ea00a8905896c60dfb30f44a-Arquitectura-de-Alto-Nivel" style="edgeStyle=orthogonalEdgeStyle;rounded=1;orthogonalLoop=1;jettySize=auto;html=1;strokeColor=#808080;strokeWidth=2;jumpStyle=arc;jumpSize=10;spacing=15;labelBackgroundColor=white;labelBorderColor=none" edge="1" parent="1" source="frontend_5bbf30b0ea00a8905896c60dfb30f44a_section_section-diagram-5bbf30b0ea00a8905896c60dfb30f44a-Arquitectura-de-Alto-Nivel" target="backend_5bbf30b0ea00a8905896c60dfb30f44a_section_section-diagram-5bbf30b0ea00a8905896c60dfb30f44a-Arquitectura-de-Alto-Nivel">
                  <mxGeometry relative="1" as="geometry"/>
                </mxCell>
                <mxCell id="edge-L_frontend_backend_0_5bbf30b0ea00a8905896c60dfb30f44a_section_section-diagram-5bbf30b0ea00a8905896c60dfb30f44a-Arquitectura-de-Alto-Nivel_label" value="HTTP Requests" style="edgeLabel;html=1;align=center;verticalAlign=middle;resizable=0;points=[];" vertex="1" connectable="0" parent="edge-L_frontend_backend_0_5bbf30b0ea00a8905896c60dfb30f44a_section_section-diagram-5bbf30b0ea00a8905896c60dfb30f44a-Arquitectura-de-Alto-Nivel">
                  <mxGeometry x="-0.2" y="10" relative="1" as="geometry">
                    <mxPoint as="offset"/>
                  </mxGeometry>
                </mxCell>
<mxCell id="edge-L_browser_frontend_1_5bbf30b0ea00a8905896c60dfb30f44a_section_section-diagram-5bbf30b0ea00a8905896c60dfb30f44a-Arquitectura-de-Alto-Nivel" style="edgeStyle=orthogonalEdgeStyle;rounded=1;orthogonalLoop=1;jettySize=auto;html=1;strokeColor=#808080;strokeWidth=2;jumpStyle=arc;jumpSize=10;spacing=15;labelBackgroundColor=white;labelBorderColor=none" edge="1" parent="1" source="browser_5bbf30b0ea00a8905896c60dfb30f44a_section_section-diagram-5bbf30b0ea00a8905896c60dfb30f44a-Arquitectura-de-Alto-Nivel" target="frontend_5bbf30b0ea00a8905896c60dfb30f44a_section_section-diagram-5bbf30b0ea00a8905896c60dfb30f44a-Arquitectura-de-Alto-Nivel">
                  <mxGeometry relative="1" as="geometry"/>
                </mxCell>
                <mxCell id="edge-L_browser_frontend_1_5bbf30b0ea00a8905896c60dfb30f44a_section_section-diagram-5bbf30b0ea00a8905896c60dfb30f44a-Arquitectura-de-Alto-Nivel_label" value="Displays" style="edgeLabel;html=1;align=center;verticalAlign=middle;resizable=0;points=[];" vertex="1" connectable="0" parent="edge-L_browser_frontend_1_5bbf30b0ea00a8905896c60dfb30f44a_section_section-diagram-5bbf30b0ea00a8905896c60dfb30f44a-Arquitectura-de-Alto-Nivel">
                  <mxGeometry x="-0.2" y="10" relative="1" as="geometry">
                    <mxPoint as="offset"/>
                  </mxGeometry>
                </mxCell>
<mxCell id="edge-L_backend_database_2_5bbf30b0ea00a8905896c60dfb30f44a_section_section-diagram-5bbf30b0ea00a8905896c60dfb30f44a-Arquitectura-de-Alto-Nivel" style="edgeStyle=orthogonalEdgeStyle;rounded=1;orthogonalLoop=1;jettySize=auto;html=1;strokeColor=#808080;strokeWidth=2;jumpStyle=arc;jumpSize=10;spacing=15;labelBackgroundColor=white;labelBorderColor=none" edge="1" parent="1" source="backend_5bbf30b0ea00a8905896c60dfb30f44a_section_section-diagram-5bbf30b0ea00a8905896c60dfb30f44a-Arquitectura-de-Alto-Nivel" target="database_5bbf30b0ea00a8905896c60dfb30f44a_section_section-diagram-5bbf30b0ea00a8905896c60dfb30f44a-Arquitectura-de-Alto-Nivel">
                  <mxGeometry relative="1" as="geometry"/>
                </mxCell>
                <mxCell id="edge-L_backend_database_2_5bbf30b0ea00a8905896c60dfb30f44a_section_section-diagram-5bbf30b0ea00a8905896c60dfb30f44a-Arquitectura-de-Alto-Nivel_label" value="Data Storage" style="edgeLabel;html=1;align=center;verticalAlign=middle;resizable=0;points=[];" vertex="1" connectable="0" parent="edge-L_backend_database_2_5bbf30b0ea00a8905896c60dfb30f44a_section_section-diagram-5bbf30b0ea00a8905896c60dfb30f44a-Arquitectura-de-Alto-Nivel">
                  <mxGeometry x="-0.2" y="10" relative="1" as="geometry">
                    <mxPoint as="offset"/>
                  </mxGeometry>
                </mxCell>
<mxCell id="edge-report-section-5bbf30b0ea00a8905896c60dfb30f44a-1-to-section-diagram-5bbf30b0ea00a8905896c60dfb30f44a-Arquitectura-de-Alto-Nivel-wrapper" style="edgeStyle=orthogonalEdgeStyle;rounded=1;orthogonalLoop=1;jettySize=auto;html=1;strokeColor=#808080;strokeWidth=2;jumpStyle=arc;jumpSize=10;spacing=15;labelBackgroundColor=white;labelBorderColor=none" edge="1" parent="1" source="report-section-5bbf30b0ea00a8905896c60dfb30f44a-1" target="section-diagram-5bbf30b0ea00a8905896c60dfb30f44a-Arquitectura-de-Alto-Nivel-wrapper">
                  <mxGeometry relative="1" as="geometry"/>
                </mxCell>
                <mxCell id="edge-report-section-5bbf30b0ea00a8905896c60dfb30f44a-1-to-section-diagram-5bbf30b0ea00a8905896c60dfb30f44a-Arquitectura-de-Alto-Nivel-wrapper_label" value="Diagram" style="edgeLabel;html=1;align=center;verticalAlign=middle;resizable=0;points=[];" vertex="1" connectable="0" parent="edge-report-section-5bbf30b0ea00a8905896c60dfb30f44a-1-to-section-diagram-5bbf30b0ea00a8905896c60dfb30f44a-Arquitectura-de-Alto-Nivel-wrapper">
                  <mxGeometry x="-0.2" y="10" relative="1" as="geometry">
                    <mxPoint as="offset"/>
                  </mxGeometry>
                </mxCell>
<mxCell id="edge-L_backendEntry_authMiddleware_0_5bbf30b0ea00a8905896c60dfb30f44a_section_section-diagram-5bbf30b0ea00a8905896c60dfb30f44a-Componentes-del-Backend" style="edgeStyle=orthogonalEdgeStyle;rounded=1;orthogonalLoop=1;jettySize=auto;html=1;strokeColor=#808080;strokeWidth=2;jumpStyle=arc;jumpSize=10;spacing=15;labelBackgroundColor=white;labelBorderColor=none" edge="1" parent="1" source="backendEntry_5bbf30b0ea00a8905896c60dfb30f44a_section_section-diagram-5bbf30b0ea00a8905896c60dfb30f44a-Componentes-del-Backend" target="authMiddleware_5bbf30b0ea00a8905896c60dfb30f44a_section_section-diagram-5bbf30b0ea00a8905896c60dfb30f44a-Componentes-del-Backend">
                  <mxGeometry relative="1" as="geometry"/>
                </mxCell>
                <mxCell id="edge-L_backendEntry_authMiddleware_0_5bbf30b0ea00a8905896c60dfb30f44a_section_section-diagram-5bbf30b0ea00a8905896c60dfb30f44a-Componentes-del-Backend_label" value="Uses" style="edgeLabel;html=1;align=center;verticalAlign=middle;resizable=0;points=[];" vertex="1" connectable="0" parent="edge-L_backendEntry_authMiddleware_0_5bbf30b0ea00a8905896c60dfb30f44a_section_section-diagram-5bbf30b0ea00a8905896c60dfb30f44a-Componentes-del-Backend">
                  <mxGeometry x="-0.2" y="10" relative="1" as="geometry">
                    <mxPoint as="offset"/>
                  </mxGeometry>
                </mxCell>
<mxCell id="edge-L_backendEntry_envConfig_1_5bbf30b0ea00a8905896c60dfb30f44a_section_section-diagram-5bbf30b0ea00a8905896c60dfb30f44a-Componentes-del-Backend" style="edgeStyle=orthogonalEdgeStyle;rounded=1;orthogonalLoop=1;jettySize=auto;html=1;strokeColor=#808080;strokeWidth=2;jumpStyle=arc;jumpSize=10;spacing=15;labelBackgroundColor=white;labelBorderColor=none" edge="1" parent="1" source="backendEntry_5bbf30b0ea00a8905896c60dfb30f44a_section_section-diagram-5bbf30b0ea00a8905896c60dfb30f44a-Componentes-del-Backend" target="envConfig_5bbf30b0ea00a8905896c60dfb30f44a_section_section-diagram-5bbf30b0ea00a8905896c60dfb30f44a-Componentes-del-Backend">
                  <mxGeometry relative="1" as="geometry"/>
                </mxCell>
                <mxCell id="edge-L_backendEntry_envConfig_1_5bbf30b0ea00a8905896c60dfb30f44a_section_section-diagram-5bbf30b0ea00a8905896c60dfb30f44a-Componentes-del-Backend_label" value="Loads" style="edgeLabel;html=1;align=center;verticalAlign=middle;resizable=0;points=[];" vertex="1" connectable="0" parent="edge-L_backendEntry_envConfig_1_5bbf30b0ea00a8905896c60dfb30f44a_section_section-diagram-5bbf30b0ea00a8905896c60dfb30f44a-Componentes-del-Backend">
                  <mxGeometry x="-0.2" y="10" relative="1" as="geometry">
                    <mxPoint as="offset"/>
                  </mxGeometry>
                </mxCell>
<mxCell id="edge-L_backendEntry_packageJson_2_5bbf30b0ea00a8905896c60dfb30f44a_section_section-diagram-5bbf30b0ea00a8905896c60dfb30f44a-Componentes-del-Backend" style="edgeStyle=orthogonalEdgeStyle;rounded=1;orthogonalLoop=1;jettySize=auto;html=1;strokeColor=#808080;strokeWidth=2;jumpStyle=arc;jumpSize=10;spacing=15;labelBackgroundColor=white;labelBorderColor=none" edge="1" parent="1" source="backendEntry_5bbf30b0ea00a8905896c60dfb30f44a_section_section-diagram-5bbf30b0ea00a8905896c60dfb30f44a-Componentes-del-Backend" target="packageJson_5bbf30b0ea00a8905896c60dfb30f44a_section_section-diagram-5bbf30b0ea00a8905896c60dfb30f44a-Componentes-del-Backend">
                  <mxGeometry relative="1" as="geometry"/>
                </mxCell>
                <mxCell id="edge-L_backendEntry_packageJson_2_5bbf30b0ea00a8905896c60dfb30f44a_section_section-diagram-5bbf30b0ea00a8905896c60dfb30f44a-Componentes-del-Backend_label" value="Defines" style="edgeLabel;html=1;align=center;verticalAlign=middle;resizable=0;points=[];" vertex="1" connectable="0" parent="edge-L_backendEntry_packageJson_2_5bbf30b0ea00a8905896c60dfb30f44a_section_section-diagram-5bbf30b0ea00a8905896c60dfb30f44a-Componentes-del-Backend">
                  <mxGeometry x="-0.2" y="10" relative="1" as="geometry">
                    <mxPoint as="offset"/>
                  </mxGeometry>
                </mxCell>
<mxCell id="edge-L_authMiddleware_backendEntry_3_5bbf30b0ea00a8905896c60dfb30f44a_section_section-diagram-5bbf30b0ea00a8905896c60dfb30f44a-Componentes-del-Backend" style="edgeStyle=orthogonalEdgeStyle;rounded=1;orthogonalLoop=1;jettySize=auto;html=1;strokeColor=#808080;strokeWidth=2;jumpStyle=arc;jumpSize=10;spacing=15;labelBackgroundColor=white;labelBorderColor=none" edge="1" parent="1" source="authMiddleware_5bbf30b0ea00a8905896c60dfb30f44a_section_section-diagram-5bbf30b0ea00a8905896c60dfb30f44a-Componentes-del-Backend" target="backendEntry_5bbf30b0ea00a8905896c60dfb30f44a_section_section-diagram-5bbf30b0ea00a8905896c60dfb30f44a-Componentes-del-Backend">
                  <mxGeometry relative="1" as="geometry"/>
                </mxCell>
                <mxCell id="edge-L_authMiddleware_backendEntry_3_5bbf30b0ea00a8905896c60dfb30f44a_section_section-diagram-5bbf30b0ea00a8905896c60dfb30f44a-Componentes-del-Backend_label" value="Protects" style="edgeLabel;html=1;align=center;verticalAlign=middle;resizable=0;points=[];" vertex="1" connectable="0" parent="edge-L_authMiddleware_backendEntry_3_5bbf30b0ea00a8905896c60dfb30f44a_section_section-diagram-5bbf30b0ea00a8905896c60dfb30f44a-Componentes-del-Backend">
                  <mxGeometry x="-0.2" y="10" relative="1" as="geometry">
                    <mxPoint as="offset"/>
                  </mxGeometry>
                </mxCell>
<mxCell id="edge-report-section-5bbf30b0ea00a8905896c60dfb30f44a-2-to-section-diagram-5bbf30b0ea00a8905896c60dfb30f44a-Componentes-del-Backend-wrapper" style="edgeStyle=orthogonalEdgeStyle;rounded=1;orthogonalLoop=1;jettySize=auto;html=1;strokeColor=#808080;strokeWidth=2;jumpStyle=arc;jumpSize=10;spacing=15;labelBackgroundColor=white;labelBorderColor=none" edge="1" parent="1" source="report-section-5bbf30b0ea00a8905896c60dfb30f44a-2" target="section-diagram-5bbf30b0ea00a8905896c60dfb30f44a-Componentes-del-Backend-wrapper">
                  <mxGeometry relative="1" as="geometry"/>
                </mxCell>
                <mxCell id="edge-report-section-5bbf30b0ea00a8905896c60dfb30f44a-2-to-section-diagram-5bbf30b0ea00a8905896c60dfb30f44a-Componentes-del-Backend-wrapper_label" value="Diagram" style="edgeLabel;html=1;align=center;verticalAlign=middle;resizable=0;points=[];" vertex="1" connectable="0" parent="edge-report-section-5bbf30b0ea00a8905896c60dfb30f44a-2-to-section-diagram-5bbf30b0ea00a8905896c60dfb30f44a-Componentes-del-Backend-wrapper">
                  <mxGeometry x="-0.2" y="10" relative="1" as="geometry">
                    <mxPoint as="offset"/>
                  </mxGeometry>
                </mxCell>
<mxCell id="edge-L_frontendEntry_appComponent_0_5bbf30b0ea00a8905896c60dfb30f44a_section_section-diagram-5bbf30b0ea00a8905896c60dfb30f44a-Componentes-del-Frontend" style="edgeStyle=orthogonalEdgeStyle;rounded=1;orthogonalLoop=1;jettySize=auto;html=1;strokeColor=#808080;strokeWidth=2;jumpStyle=arc;jumpSize=10;spacing=15;labelBackgroundColor=white;labelBorderColor=none" edge="1" parent="1" source="frontendEntry_5bbf30b0ea00a8905896c60dfb30f44a_section_section-diagram-5bbf30b0ea00a8905896c60dfb30f44a-Componentes-del-Frontend" target="appComponent_5bbf30b0ea00a8905896c60dfb30f44a_section_section-diagram-5bbf30b0ea00a8905896c60dfb30f44a-Componentes-del-Frontend">
                  <mxGeometry relative="1" as="geometry"/>
                </mxCell>
                <mxCell id="edge-L_frontendEntry_appComponent_0_5bbf30b0ea00a8905896c60dfb30f44a_section_section-diagram-5bbf30b0ea00a8905896c60dfb30f44a-Componentes-del-Frontend_label" value="Mounts" style="edgeLabel;html=1;align=center;verticalAlign=middle;resizable=0;points=[];" vertex="1" connectable="0" parent="edge-L_frontendEntry_appComponent_0_5bbf30b0ea00a8905896c60dfb30f44a_section_section-diagram-5bbf30b0ea00a8905896c60dfb30f44a-Componentes-del-Frontend">
                  <mxGeometry x="-0.2" y="10" relative="1" as="geometry">
                    <mxPoint as="offset"/>
                  </mxGeometry>
                </mxCell>
<mxCell id="edge-L_frontendEntry_indexCss_1_5bbf30b0ea00a8905896c60dfb30f44a_section_section-diagram-5bbf30b0ea00a8905896c60dfb30f44a-Componentes-del-Frontend" style="edgeStyle=orthogonalEdgeStyle;rounded=1;orthogonalLoop=1;jettySize=auto;html=1;strokeColor=#808080;strokeWidth=2;jumpStyle=arc;jumpSize=10;spacing=15;labelBackgroundColor=white;labelBorderColor=none" edge="1" parent="1" source="frontendEntry_5bbf30b0ea00a8905896c60dfb30f44a_section_section-diagram-5bbf30b0ea00a8905896c60dfb30f44a-Componentes-del-Frontend" target="indexCss_5bbf30b0ea00a8905896c60dfb30f44a_section_section-diagram-5bbf30b0ea00a8905896c60dfb30f44a-Componentes-del-Frontend">
                  <mxGeometry relative="1" as="geometry"/>
                </mxCell>
                <mxCell id="edge-L_frontendEntry_indexCss_1_5bbf30b0ea00a8905896c60dfb30f44a_section_section-diagram-5bbf30b0ea00a8905896c60dfb30f44a-Componentes-del-Frontend_label" value="Imports" style="edgeLabel;html=1;align=center;verticalAlign=middle;resizable=0;points=[];" vertex="1" connectable="0" parent="edge-L_frontendEntry_indexCss_1_5bbf30b0ea00a8905896c60dfb30f44a_section_section-diagram-5bbf30b0ea00a8905896c60dfb30f44a-Componentes-del-Frontend">
                  <mxGeometry x="-0.2" y="10" relative="1" as="geometry">
                    <mxPoint as="offset"/>
                  </mxGeometry>
                </mxCell>
<mxCell id="edge-L_appComponent_componentsFolder_2_5bbf30b0ea00a8905896c60dfb30f44a_section_section-diagram-5bbf30b0ea00a8905896c60dfb30f44a-Componentes-del-Frontend" style="edgeStyle=orthogonalEdgeStyle;rounded=1;orthogonalLoop=1;jettySize=auto;html=1;strokeColor=#808080;strokeWidth=2;jumpStyle=arc;jumpSize=10;spacing=15;labelBackgroundColor=white;labelBorderColor=none" edge="1" parent="1" source="appComponent_5bbf30b0ea00a8905896c60dfb30f44a_section_section-diagram-5bbf30b0ea00a8905896c60dfb30f44a-Componentes-del-Frontend" target="componentsFolder_5bbf30b0ea00a8905896c60dfb30f44a_section_section-diagram-5bbf30b0ea00a8905896c60dfb30f44a-Componentes-del-Frontend">
                  <mxGeometry relative="1" as="geometry"/>
                </mxCell>
                <mxCell id="edge-L_appComponent_componentsFolder_2_5bbf30b0ea00a8905896c60dfb30f44a_section_section-diagram-5bbf30b0ea00a8905896c60dfb30f44a-Componentes-del-Frontend_label" value="Uses" style="edgeLabel;html=1;align=center;verticalAlign=middle;resizable=0;points=[];" vertex="1" connectable="0" parent="edge-L_appComponent_componentsFolder_2_5bbf30b0ea00a8905896c60dfb30f44a_section_section-diagram-5bbf30b0ea00a8905896c60dfb30f44a-Componentes-del-Frontend">
                  <mxGeometry x="-0.2" y="10" relative="1" as="geometry">
                    <mxPoint as="offset"/>
                  </mxGeometry>
                </mxCell>
<mxCell id="edge-L_appComponent_hooksFolder_3_5bbf30b0ea00a8905896c60dfb30f44a_section_section-diagram-5bbf30b0ea00a8905896c60dfb30f44a-Componentes-del-Frontend" style="edgeStyle=orthogonalEdgeStyle;rounded=1;orthogonalLoop=1;jettySize=auto;html=1;strokeColor=#808080;strokeWidth=2;jumpStyle=arc;jumpSize=10;spacing=15;labelBackgroundColor=white;labelBorderColor=none" edge="1" parent="1" source="appComponent_5bbf30b0ea00a8905896c60dfb30f44a_section_section-diagram-5bbf30b0ea00a8905896c60dfb30f44a-Componentes-del-Frontend" target="hooksFolder_5bbf30b0ea00a8905896c60dfb30f44a_section_section-diagram-5bbf30b0ea00a8905896c60dfb30f44a-Componentes-del-Frontend">
                  <mxGeometry relative="1" as="geometry"/>
                </mxCell>
                <mxCell id="edge-L_appComponent_hooksFolder_3_5bbf30b0ea00a8905896c60dfb30f44a_section_section-diagram-5bbf30b0ea00a8905896c60dfb30f44a-Componentes-del-Frontend_label" value="Uses" style="edgeLabel;html=1;align=center;verticalAlign=middle;resizable=0;points=[];" vertex="1" connectable="0" parent="edge-L_appComponent_hooksFolder_3_5bbf30b0ea00a8905896c60dfb30f44a_section_section-diagram-5bbf30b0ea00a8905896c60dfb30f44a-Componentes-del-Frontend">
                  <mxGeometry x="-0.2" y="10" relative="1" as="geometry">
                    <mxPoint as="offset"/>
                  </mxGeometry>
                </mxCell>
<mxCell id="edge-L_appComponent_appCss_4_5bbf30b0ea00a8905896c60dfb30f44a_section_section-diagram-5bbf30b0ea00a8905896c60dfb30f44a-Componentes-del-Frontend" style="edgeStyle=orthogonalEdgeStyle;rounded=1;orthogonalLoop=1;jettySize=auto;html=1;strokeColor=#808080;strokeWidth=2;jumpStyle=arc;jumpSize=10;spacing=15;labelBackgroundColor=white;labelBorderColor=none" edge="1" parent="1" source="appComponent_5bbf30b0ea00a8905896c60dfb30f44a_section_section-diagram-5bbf30b0ea00a8905896c60dfb30f44a-Componentes-del-Frontend" target="appCss_5bbf30b0ea00a8905896c60dfb30f44a_section_section-diagram-5bbf30b0ea00a8905896c60dfb30f44a-Componentes-del-Frontend">
                  <mxGeometry relative="1" as="geometry"/>
                </mxCell>
                <mxCell id="edge-L_appComponent_appCss_4_5bbf30b0ea00a8905896c60dfb30f44a_section_section-diagram-5bbf30b0ea00a8905896c60dfb30f44a-Componentes-del-Frontend_label" value="Imports" style="edgeLabel;html=1;align=center;verticalAlign=middle;resizable=0;points=[];" vertex="1" connectable="0" parent="edge-L_appComponent_appCss_4_5bbf30b0ea00a8905896c60dfb30f44a_section_section-diagram-5bbf30b0ea00a8905896c60dfb30f44a-Componentes-del-Frontend">
                  <mxGeometry x="-0.2" y="10" relative="1" as="geometry">
                    <mxPoint as="offset"/>
                  </mxGeometry>
                </mxCell>
<mxCell id="edge-L_componentsFolder_activityModal_5_5bbf30b0ea00a8905896c60dfb30f44a_section_section-diagram-5bbf30b0ea00a8905896c60dfb30f44a-Componentes-del-Frontend" style="edgeStyle=orthogonalEdgeStyle;rounded=1;orthogonalLoop=1;jettySize=auto;html=1;strokeColor=#808080;strokeWidth=2;jumpStyle=arc;jumpSize=10;spacing=15;labelBackgroundColor=white;labelBorderColor=none" edge="1" parent="1" source="componentsFolder_5bbf30b0ea00a8905896c60dfb30f44a_section_section-diagram-5bbf30b0ea00a8905896c60dfb30f44a-Componentes-del-Frontend" target="activityModal_5bbf30b0ea00a8905896c60dfb30f44a_section_section-diagram-5bbf30b0ea00a8905896c60dfb30f44a-Componentes-del-Frontend">
                  <mxGeometry relative="1" as="geometry"/>
                </mxCell>
                <mxCell id="edge-L_componentsFolder_activityModal_5_5bbf30b0ea00a8905896c60dfb30f44a_section_section-diagram-5bbf30b0ea00a8905896c60dfb30f44a-Componentes-del-Frontend_label" value="Contains" style="edgeLabel;html=1;align=center;verticalAlign=middle;resizable=0;points=[];" vertex="1" connectable="0" parent="edge-L_componentsFolder_activityModal_5_5bbf30b0ea00a8905896c60dfb30f44a_section_section-diagram-5bbf30b0ea00a8905896c60dfb30f44a-Componentes-del-Frontend">
                  <mxGeometry x="-0.2" y="10" relative="1" as="geometry">
                    <mxPoint as="offset"/>
                  </mxGeometry>
                </mxCell>
<mxCell id="edge-L_componentsFolder_historyModal_6_5bbf30b0ea00a8905896c60dfb30f44a_section_section-diagram-5bbf30b0ea00a8905896c60dfb30f44a-Componentes-del-Frontend" style="edgeStyle=orthogonalEdgeStyle;rounded=1;orthogonalLoop=1;jettySize=auto;html=1;strokeColor=#808080;strokeWidth=2;jumpStyle=arc;jumpSize=10;spacing=15;labelBackgroundColor=white;labelBorderColor=none" edge="1" parent="1" source="componentsFolder_5bbf30b0ea00a8905896c60dfb30f44a_section_section-diagram-5bbf30b0ea00a8905896c60dfb30f44a-Componentes-del-Frontend" target="historyModal_5bbf30b0ea00a8905896c60dfb30f44a_section_section-diagram-5bbf30b0ea00a8905896c60dfb30f44a-Componentes-del-Frontend">
                  <mxGeometry relative="1" as="geometry"/>
                </mxCell>
                <mxCell id="edge-L_componentsFolder_historyModal_6_5bbf30b0ea00a8905896c60dfb30f44a_section_section-diagram-5bbf30b0ea00a8905896c60dfb30f44a-Componentes-del-Frontend_label" value="Contains" style="edgeLabel;html=1;align=center;verticalAlign=middle;resizable=0;points=[];" vertex="1" connectable="0" parent="edge-L_componentsFolder_historyModal_6_5bbf30b0ea00a8905896c60dfb30f44a_section_section-diagram-5bbf30b0ea00a8905896c60dfb30f44a-Componentes-del-Frontend">
                  <mxGeometry x="-0.2" y="10" relative="1" as="geometry">
                    <mxPoint as="offset"/>
                  </mxGeometry>
                </mxCell>
<mxCell id="edge-L_hooksFolder_authFetchHook_7_5bbf30b0ea00a8905896c60dfb30f44a_section_section-diagram-5bbf30b0ea00a8905896c60dfb30f44a-Componentes-del-Frontend" style="edgeStyle=orthogonalEdgeStyle;rounded=1;orthogonalLoop=1;jettySize=auto;html=1;strokeColor=#808080;strokeWidth=2;jumpStyle=arc;jumpSize=10;spacing=15;labelBackgroundColor=white;labelBorderColor=none" edge="1" parent="1" source="hooksFolder_5bbf30b0ea00a8905896c60dfb30f44a_section_section-diagram-5bbf30b0ea00a8905896c60dfb30f44a-Componentes-del-Frontend" target="authFetchHook_5bbf30b0ea00a8905896c60dfb30f44a_section_section-diagram-5bbf30b0ea00a8905896c60dfb30f44a-Componentes-del-Frontend">
                  <mxGeometry relative="1" as="geometry"/>
                </mxCell>
                <mxCell id="edge-L_hooksFolder_authFetchHook_7_5bbf30b0ea00a8905896c60dfb30f44a_section_section-diagram-5bbf30b0ea00a8905896c60dfb30f44a-Componentes-del-Frontend_label" value="Contains" style="edgeLabel;html=1;align=center;verticalAlign=middle;resizable=0;points=[];" vertex="1" connectable="0" parent="edge-L_hooksFolder_authFetchHook_7_5bbf30b0ea00a8905896c60dfb30f44a_section_section-diagram-5bbf30b0ea00a8905896c60dfb30f44a-Componentes-del-Frontend">
                  <mxGeometry x="-0.2" y="10" relative="1" as="geometry">
                    <mxPoint as="offset"/>
                  </mxGeometry>
                </mxCell>
<mxCell id="edge-report-section-5bbf30b0ea00a8905896c60dfb30f44a-3-to-section-diagram-5bbf30b0ea00a8905896c60dfb30f44a-Componentes-del-Frontend-wrapper" style="edgeStyle=orthogonalEdgeStyle;rounded=1;orthogonalLoop=1;jettySize=auto;html=1;strokeColor=#808080;strokeWidth=2;jumpStyle=arc;jumpSize=10;spacing=15;labelBackgroundColor=white;labelBorderColor=none" edge="1" parent="1" source="report-section-5bbf30b0ea00a8905896c60dfb30f44a-3" target="section-diagram-5bbf30b0ea00a8905896c60dfb30f44a-Componentes-del-Frontend-wrapper">
                  <mxGeometry relative="1" as="geometry"/>
                </mxCell>
                <mxCell id="edge-report-section-5bbf30b0ea00a8905896c60dfb30f44a-3-to-section-diagram-5bbf30b0ea00a8905896c60dfb30f44a-Componentes-del-Frontend-wrapper_label" value="Diagram" style="edgeLabel;html=1;align=center;verticalAlign=middle;resizable=0;points=[];" vertex="1" connectable="0" parent="edge-report-section-5bbf30b0ea00a8905896c60dfb30f44a-3-to-section-diagram-5bbf30b0ea00a8905896c60dfb30f44a-Componentes-del-Frontend-wrapper">
                  <mxGeometry x="-0.2" y="10" relative="1" as="geometry">
                    <mxPoint as="offset"/>
                  </mxGeometry>
                </mxCell>
<mxCell id="edge-L_packageJsonRoot_packageLockJson_0_5bbf30b0ea00a8905896c60dfb30f44a_section_section-diagram-5bbf30b0ea00a8905896c60dfb30f44a-Archivos-de-Configuración-y-Raíz-del-Proyecto" style="edgeStyle=orthogonalEdgeStyle;rounded=1;orthogonalLoop=1;jettySize=auto;html=1;strokeColor=#808080;strokeWidth=2;jumpStyle=arc;jumpSize=10;spacing=15;labelBackgroundColor=white;labelBorderColor=none" edge="1" parent="1" source="packageJsonRoot_5bbf30b0ea00a8905896c60dfb30f44a_section_section-diagram-5bbf30b0ea00a8905896c60dfb30f44a-Archivos-de-Configuración-y-Raíz-del-Proyecto" target="packageLockJson_5bbf30b0ea00a8905896c60dfb30f44a_section_section-diagram-5bbf30b0ea00a8905896c60dfb30f44a-Archivos-de-Configuración-y-Raíz-del-Proyecto">
                  <mxGeometry relative="1" as="geometry"/>
                </mxCell>
                <mxCell id="edge-L_packageJsonRoot_packageLockJson_0_5bbf30b0ea00a8905896c60dfb30f44a_section_section-diagram-5bbf30b0ea00a8905896c60dfb30f44a-Archivos-de-Configuración-y-Raíz-del-Proyecto_label" value="Defines" style="edgeLabel;html=1;align=center;verticalAlign=middle;resizable=0;points=[];" vertex="1" connectable="0" parent="edge-L_packageJsonRoot_packageLockJson_0_5bbf30b0ea00a8905896c60dfb30f44a_section_section-diagram-5bbf30b0ea00a8905896c60dfb30f44a-Archivos-de-Configuración-y-Raíz-del-Proyecto">
                  <mxGeometry x="-0.2" y="10" relative="1" as="geometry">
                    <mxPoint as="offset"/>
                  </mxGeometry>
                </mxCell>
<mxCell id="edge-L_packageJsonRoot_tsconfig_1_5bbf30b0ea00a8905896c60dfb30f44a_section_section-diagram-5bbf30b0ea00a8905896c60dfb30f44a-Archivos-de-Configuración-y-Raíz-del-Proyecto" style="edgeStyle=orthogonalEdgeStyle;rounded=1;orthogonalLoop=1;jettySize=auto;html=1;strokeColor=#808080;strokeWidth=2;jumpStyle=arc;jumpSize=10;spacing=15;labelBackgroundColor=white;labelBorderColor=none" edge="1" parent="1" source="packageJsonRoot_5bbf30b0ea00a8905896c60dfb30f44a_section_section-diagram-5bbf30b0ea00a8905896c60dfb30f44a-Archivos-de-Configuración-y-Raíz-del-Proyecto" target="tsconfig_5bbf30b0ea00a8905896c60dfb30f44a_section_section-diagram-5bbf30b0ea00a8905896c60dfb30f44a-Archivos-de-Configuración-y-Raíz-del-Proyecto">
                  <mxGeometry relative="1" as="geometry"/>
                </mxCell>
                <mxCell id="edge-L_packageJsonRoot_tsconfig_1_5bbf30b0ea00a8905896c60dfb30f44a_section_section-diagram-5bbf30b0ea00a8905896c60dfb30f44a-Archivos-de-Configuración-y-Raíz-del-Proyecto_label" value="Configures" style="edgeLabel;html=1;align=center;verticalAlign=middle;resizable=0;points=[];" vertex="1" connectable="0" parent="edge-L_packageJsonRoot_tsconfig_1_5bbf30b0ea00a8905896c60dfb30f44a_section_section-diagram-5bbf30b0ea00a8905896c60dfb30f44a-Archivos-de-Configuración-y-Raíz-del-Proyecto">
                  <mxGeometry x="-0.2" y="10" relative="1" as="geometry">
                    <mxPoint as="offset"/>
                  </mxGeometry>
                </mxCell>
<mxCell id="edge-L_packageJsonRoot_tailwindConfig_2_5bbf30b0ea00a8905896c60dfb30f44a_section_section-diagram-5bbf30b0ea00a8905896c60dfb30f44a-Archivos-de-Configuración-y-Raíz-del-Proyecto" style="edgeStyle=orthogonalEdgeStyle;rounded=1;orthogonalLoop=1;jettySize=auto;html=1;strokeColor=#808080;strokeWidth=2;jumpStyle=arc;jumpSize=10;spacing=15;labelBackgroundColor=white;labelBorderColor=none" edge="1" parent="1" source="packageJsonRoot_5bbf30b0ea00a8905896c60dfb30f44a_section_section-diagram-5bbf30b0ea00a8905896c60dfb30f44a-Archivos-de-Configuración-y-Raíz-del-Proyecto" target="tailwindConfig_5bbf30b0ea00a8905896c60dfb30f44a_section_section-diagram-5bbf30b0ea00a8905896c60dfb30f44a-Archivos-de-Configuración-y-Raíz-del-Proyecto">
                  <mxGeometry relative="1" as="geometry"/>
                </mxCell>
                <mxCell id="edge-L_packageJsonRoot_tailwindConfig_2_5bbf30b0ea00a8905896c60dfb30f44a_section_section-diagram-5bbf30b0ea00a8905896c60dfb30f44a-Archivos-de-Configuración-y-Raíz-del-Proyecto_label" value="Configures" style="edgeLabel;html=1;align=center;verticalAlign=middle;resizable=0;points=[];" vertex="1" connectable="0" parent="edge-L_packageJsonRoot_tailwindConfig_2_5bbf30b0ea00a8905896c60dfb30f44a_section_section-diagram-5bbf30b0ea00a8905896c60dfb30f44a-Archivos-de-Configuración-y-Raíz-del-Proyecto">
                  <mxGeometry x="-0.2" y="10" relative="1" as="geometry">
                    <mxPoint as="offset"/>
                  </mxGeometry>
                </mxCell>
<mxCell id="edge-L_packageJsonRoot_postcssConfig_3_5bbf30b0ea00a8905896c60dfb30f44a_section_section-diagram-5bbf30b0ea00a8905896c60dfb30f44a-Archivos-de-Configuración-y-Raíz-del-Proyecto" style="edgeStyle=orthogonalEdgeStyle;rounded=1;orthogonalLoop=1;jettySize=auto;html=1;strokeColor=#808080;strokeWidth=2;jumpStyle=arc;jumpSize=10;spacing=15;labelBackgroundColor=white;labelBorderColor=none" edge="1" parent="1" source="packageJsonRoot_5bbf30b0ea00a8905896c60dfb30f44a_section_section-diagram-5bbf30b0ea00a8905896c60dfb30f44a-Archivos-de-Configuración-y-Raíz-del-Proyecto" target="postcssConfig_5bbf30b0ea00a8905896c60dfb30f44a_section_section-diagram-5bbf30b0ea00a8905896c60dfb30f44a-Archivos-de-Configuración-y-Raíz-del-Proyecto">
                  <mxGeometry relative="1" as="geometry"/>
                </mxCell>
                <mxCell id="edge-L_packageJsonRoot_postcssConfig_3_5bbf30b0ea00a8905896c60dfb30f44a_section_section-diagram-5bbf30b0ea00a8905896c60dfb30f44a-Archivos-de-Configuración-y-Raíz-del-Proyecto_label" value="Configures" style="edgeLabel;html=1;align=center;verticalAlign=middle;resizable=0;points=[];" vertex="1" connectable="0" parent="edge-L_packageJsonRoot_postcssConfig_3_5bbf30b0ea00a8905896c60dfb30f44a_section_section-diagram-5bbf30b0ea00a8905896c60dfb30f44a-Archivos-de-Configuración-y-Raíz-del-Proyecto">
                  <mxGeometry x="-0.2" y="10" relative="1" as="geometry">
                    <mxPoint as="offset"/>
                  </mxGeometry>
                </mxCell>
<mxCell id="edge-L_packageJsonRoot_gitignore_4_5bbf30b0ea00a8905896c60dfb30f44a_section_section-diagram-5bbf30b0ea00a8905896c60dfb30f44a-Archivos-de-Configuración-y-Raíz-del-Proyecto" style="edgeStyle=orthogonalEdgeStyle;rounded=1;orthogonalLoop=1;jettySize=auto;html=1;strokeColor=#808080;strokeWidth=2;jumpStyle=arc;jumpSize=10;spacing=15;labelBackgroundColor=white;labelBorderColor=none" edge="1" parent="1" source="packageJsonRoot_5bbf30b0ea00a8905896c60dfb30f44a_section_section-diagram-5bbf30b0ea00a8905896c60dfb30f44a-Archivos-de-Configuración-y-Raíz-del-Proyecto" target="gitignore_5bbf30b0ea00a8905896c60dfb30f44a_section_section-diagram-5bbf30b0ea00a8905896c60dfb30f44a-Archivos-de-Configuración-y-Raíz-del-Proyecto">
                  <mxGeometry relative="1" as="geometry"/>
                </mxCell>
                <mxCell id="edge-L_packageJsonRoot_gitignore_4_5bbf30b0ea00a8905896c60dfb30f44a_section_section-diagram-5bbf30b0ea00a8905896c60dfb30f44a-Archivos-de-Configuración-y-Raíz-del-Proyecto_label" value="Excludes" style="edgeLabel;html=1;align=center;verticalAlign=middle;resizable=0;points=[];" vertex="1" connectable="0" parent="edge-L_packageJsonRoot_gitignore_4_5bbf30b0ea00a8905896c60dfb30f44a_section_section-diagram-5bbf30b0ea00a8905896c60dfb30f44a-Archivos-de-Configuración-y-Raíz-del-Proyecto">
                  <mxGeometry x="-0.2" y="10" relative="1" as="geometry">
                    <mxPoint as="offset"/>
                  </mxGeometry>
                </mxCell>
<mxCell id="edge-L_packageJsonRoot_readme_5_5bbf30b0ea00a8905896c60dfb30f44a_section_section-diagram-5bbf30b0ea00a8905896c60dfb30f44a-Archivos-de-Configuración-y-Raíz-del-Proyecto" style="edgeStyle=orthogonalEdgeStyle;rounded=1;orthogonalLoop=1;jettySize=auto;html=1;strokeColor=#808080;strokeWidth=2;jumpStyle=arc;jumpSize=10;spacing=15;labelBackgroundColor=white;labelBorderColor=none" edge="1" parent="1" source="packageJsonRoot_5bbf30b0ea00a8905896c60dfb30f44a_section_section-diagram-5bbf30b0ea00a8905896c60dfb30f44a-Archivos-de-Configuración-y-Raíz-del-Proyecto" target="readme_5bbf30b0ea00a8905896c60dfb30f44a_section_section-diagram-5bbf30b0ea00a8905896c60dfb30f44a-Archivos-de-Configuración-y-Raíz-del-Proyecto">
                  <mxGeometry relative="1" as="geometry"/>
                </mxCell>
                <mxCell id="edge-L_packageJsonRoot_readme_5_5bbf30b0ea00a8905896c60dfb30f44a_section_section-diagram-5bbf30b0ea00a8905896c60dfb30f44a-Archivos-de-Configuración-y-Raíz-del-Proyecto_label" value="References" style="edgeLabel;html=1;align=center;verticalAlign=middle;resizable=0;points=[];" vertex="1" connectable="0" parent="edge-L_packageJsonRoot_readme_5_5bbf30b0ea00a8905896c60dfb30f44a_section_section-diagram-5bbf30b0ea00a8905896c60dfb30f44a-Archivos-de-Configuración-y-Raíz-del-Proyecto">
                  <mxGeometry x="-0.2" y="10" relative="1" as="geometry">
                    <mxPoint as="offset"/>
                  </mxGeometry>
                </mxCell>
<mxCell id="edge-report-section-5bbf30b0ea00a8905896c60dfb30f44a-4-to-section-diagram-5bbf30b0ea00a8905896c60dfb30f44a-Archivos-de-Configuración-y-Raíz-del-Proyecto-wrapper" style="edgeStyle=orthogonalEdgeStyle;rounded=1;orthogonalLoop=1;jettySize=auto;html=1;strokeColor=#808080;strokeWidth=2;jumpStyle=arc;jumpSize=10;spacing=15;labelBackgroundColor=white;labelBorderColor=none" edge="1" parent="1" source="report-section-5bbf30b0ea00a8905896c60dfb30f44a-4" target="section-diagram-5bbf30b0ea00a8905896c60dfb30f44a-Archivos-de-Configuración-y-Raíz-del-Proyecto-wrapper">
                  <mxGeometry relative="1" as="geometry"/>
                </mxCell>
                <mxCell id="edge-report-section-5bbf30b0ea00a8905896c60dfb30f44a-4-to-section-diagram-5bbf30b0ea00a8905896c60dfb30f44a-Archivos-de-Configuración-y-Raíz-del-Proyecto-wrapper_label" value="Diagram" style="edgeLabel;html=1;align=center;verticalAlign=middle;resizable=0;points=[];" vertex="1" connectable="0" parent="edge-report-section-5bbf30b0ea00a8905896c60dfb30f44a-4-to-section-diagram-5bbf30b0ea00a8905896c60dfb30f44a-Archivos-de-Configuración-y-Raíz-del-Proyecto-wrapper">
                  <mxGeometry x="-0.2" y="10" relative="1" as="geometry">
                    <mxPoint as="offset"/>
                  </mxGeometry>
                </mxCell>
<mxCell id="edge-L_publicFolder_indexHtml_0_5bbf30b0ea00a8905896c60dfb30f44a_section_section-diagram-5bbf30b0ea00a8905896c60dfb30f44a-Activos-Públicos" style="edgeStyle=orthogonalEdgeStyle;rounded=1;orthogonalLoop=1;jettySize=auto;html=1;strokeColor=#808080;strokeWidth=2;jumpStyle=arc;jumpSize=10;spacing=15;labelBackgroundColor=white;labelBorderColor=none" edge="1" parent="1" source="publicFolder_5bbf30b0ea00a8905896c60dfb30f44a_section_section-diagram-5bbf30b0ea00a8905896c60dfb30f44a-Activos-Públicos" target="indexHtml_5bbf30b0ea00a8905896c60dfb30f44a_section_section-diagram-5bbf30b0ea00a8905896c60dfb30f44a-Activos-Públicos">
                  <mxGeometry relative="1" as="geometry"/>
                </mxCell>
                <mxCell id="edge-L_publicFolder_indexHtml_0_5bbf30b0ea00a8905896c60dfb30f44a_section_section-diagram-5bbf30b0ea00a8905896c60dfb30f44a-Activos-Públicos_label" value="Contains" style="edgeLabel;html=1;align=center;verticalAlign=middle;resizable=0;points=[];" vertex="1" connectable="0" parent="edge-L_publicFolder_indexHtml_0_5bbf30b0ea00a8905896c60dfb30f44a_section_section-diagram-5bbf30b0ea00a8905896c60dfb30f44a-Activos-Públicos">
                  <mxGeometry x="-0.2" y="10" relative="1" as="geometry">
                    <mxPoint as="offset"/>
                  </mxGeometry>
                </mxCell>
<mxCell id="edge-L_publicFolder_manifestJson_1_5bbf30b0ea00a8905896c60dfb30f44a_section_section-diagram-5bbf30b0ea00a8905896c60dfb30f44a-Activos-Públicos" style="edgeStyle=orthogonalEdgeStyle;rounded=1;orthogonalLoop=1;jettySize=auto;html=1;strokeColor=#808080;strokeWidth=2;jumpStyle=arc;jumpSize=10;spacing=15;labelBackgroundColor=white;labelBorderColor=none" edge="1" parent="1" source="publicFolder_5bbf30b0ea00a8905896c60dfb30f44a_section_section-diagram-5bbf30b0ea00a8905896c60dfb30f44a-Activos-Públicos" target="manifestJson_5bbf30b0ea00a8905896c60dfb30f44a_section_section-diagram-5bbf30b0ea00a8905896c60dfb30f44a-Activos-Públicos">
                  <mxGeometry relative="1" as="geometry"/>
                </mxCell>
                <mxCell id="edge-L_publicFolder_manifestJson_1_5bbf30b0ea00a8905896c60dfb30f44a_section_section-diagram-5bbf30b0ea00a8905896c60dfb30f44a-Activos-Públicos_label" value="Contains" style="edgeLabel;html=1;align=center;verticalAlign=middle;resizable=0;points=[];" vertex="1" connectable="0" parent="edge-L_publicFolder_manifestJson_1_5bbf30b0ea00a8905896c60dfb30f44a_section_section-diagram-5bbf30b0ea00a8905896c60dfb30f44a-Activos-Públicos">
                  <mxGeometry x="-0.2" y="10" relative="1" as="geometry">
                    <mxPoint as="offset"/>
                  </mxGeometry>
                </mxCell>
<mxCell id="edge-L_publicFolder_logo192_2_5bbf30b0ea00a8905896c60dfb30f44a_section_section-diagram-5bbf30b0ea00a8905896c60dfb30f44a-Activos-Públicos" style="edgeStyle=orthogonalEdgeStyle;rounded=1;orthogonalLoop=1;jettySize=auto;html=1;strokeColor=#808080;strokeWidth=2;jumpStyle=arc;jumpSize=10;spacing=15;labelBackgroundColor=white;labelBorderColor=none" edge="1" parent="1" source="publicFolder_5bbf30b0ea00a8905896c60dfb30f44a_section_section-diagram-5bbf30b0ea00a8905896c60dfb30f44a-Activos-Públicos" target="logo192_5bbf30b0ea00a8905896c60dfb30f44a_section_section-diagram-5bbf30b0ea00a8905896c60dfb30f44a-Activos-Públicos">
                  <mxGeometry relative="1" as="geometry"/>
                </mxCell>
                <mxCell id="edge-L_publicFolder_logo192_2_5bbf30b0ea00a8905896c60dfb30f44a_section_section-diagram-5bbf30b0ea00a8905896c60dfb30f44a-Activos-Públicos_label" value="Contains" style="edgeLabel;html=1;align=center;verticalAlign=middle;resizable=0;points=[];" vertex="1" connectable="0" parent="edge-L_publicFolder_logo192_2_5bbf30b0ea00a8905896c60dfb30f44a_section_section-diagram-5bbf30b0ea00a8905896c60dfb30f44a-Activos-Públicos">
                  <mxGeometry x="-0.2" y="10" relative="1" as="geometry">
                    <mxPoint as="offset"/>
                  </mxGeometry>
                </mxCell>
<mxCell id="edge-L_publicFolder_logo512_3_5bbf30b0ea00a8905896c60dfb30f44a_section_section-diagram-5bbf30b0ea00a8905896c60dfb30f44a-Activos-Públicos" style="edgeStyle=orthogonalEdgeStyle;rounded=1;orthogonalLoop=1;jettySize=auto;html=1;strokeColor=#808080;strokeWidth=2;jumpStyle=arc;jumpSize=10;spacing=15;labelBackgroundColor=white;labelBorderColor=none" edge="1" parent="1" source="publicFolder_5bbf30b0ea00a8905896c60dfb30f44a_section_section-diagram-5bbf30b0ea00a8905896c60dfb30f44a-Activos-Públicos" target="logo512_5bbf30b0ea00a8905896c60dfb30f44a_section_section-diagram-5bbf30b0ea00a8905896c60dfb30f44a-Activos-Públicos">
                  <mxGeometry relative="1" as="geometry"/>
                </mxCell>
                <mxCell id="edge-L_publicFolder_logo512_3_5bbf30b0ea00a8905896c60dfb30f44a_section_section-diagram-5bbf30b0ea00a8905896c60dfb30f44a-Activos-Públicos_label" value="Contains" style="edgeLabel;html=1;align=center;verticalAlign=middle;resizable=0;points=[];" vertex="1" connectable="0" parent="edge-L_publicFolder_logo512_3_5bbf30b0ea00a8905896c60dfb30f44a_section_section-diagram-5bbf30b0ea00a8905896c60dfb30f44a-Activos-Públicos">
                  <mxGeometry x="-0.2" y="10" relative="1" as="geometry">
                    <mxPoint as="offset"/>
                  </mxGeometry>
                </mxCell>
<mxCell id="edge-L_publicFolder_favicon_4_5bbf30b0ea00a8905896c60dfb30f44a_section_section-diagram-5bbf30b0ea00a8905896c60dfb30f44a-Activos-Públicos" style="edgeStyle=orthogonalEdgeStyle;rounded=1;orthogonalLoop=1;jettySize=auto;html=1;strokeColor=#808080;strokeWidth=2;jumpStyle=arc;jumpSize=10;spacing=15;labelBackgroundColor=white;labelBorderColor=none" edge="1" parent="1" source="publicFolder_5bbf30b0ea00a8905896c60dfb30f44a_section_section-diagram-5bbf30b0ea00a8905896c60dfb30f44a-Activos-Públicos" target="favicon_5bbf30b0ea00a8905896c60dfb30f44a_section_section-diagram-5bbf30b0ea00a8905896c60dfb30f44a-Activos-Públicos">
                  <mxGeometry relative="1" as="geometry"/>
                </mxCell>
                <mxCell id="edge-L_publicFolder_favicon_4_5bbf30b0ea00a8905896c60dfb30f44a_section_section-diagram-5bbf30b0ea00a8905896c60dfb30f44a-Activos-Públicos_label" value="Contains" style="edgeLabel;html=1;align=center;verticalAlign=middle;resizable=0;points=[];" vertex="1" connectable="0" parent="edge-L_publicFolder_favicon_4_5bbf30b0ea00a8905896c60dfb30f44a_section_section-diagram-5bbf30b0ea00a8905896c60dfb30f44a-Activos-Públicos">
                  <mxGeometry x="-0.2" y="10" relative="1" as="geometry">
                    <mxPoint as="offset"/>
                  </mxGeometry>
                </mxCell>
<mxCell id="edge-L_publicFolder_robotsTxt_5_5bbf30b0ea00a8905896c60dfb30f44a_section_section-diagram-5bbf30b0ea00a8905896c60dfb30f44a-Activos-Públicos" style="edgeStyle=orthogonalEdgeStyle;rounded=1;orthogonalLoop=1;jettySize=auto;html=1;strokeColor=#808080;strokeWidth=2;jumpStyle=arc;jumpSize=10;spacing=15;labelBackgroundColor=white;labelBorderColor=none" edge="1" parent="1" source="publicFolder_5bbf30b0ea00a8905896c60dfb30f44a_section_section-diagram-5bbf30b0ea00a8905896c60dfb30f44a-Activos-Públicos" target="robotsTxt_5bbf30b0ea00a8905896c60dfb30f44a_section_section-diagram-5bbf30b0ea00a8905896c60dfb30f44a-Activos-Públicos">
                  <mxGeometry relative="1" as="geometry"/>
                </mxCell>
                <mxCell id="edge-L_publicFolder_robotsTxt_5_5bbf30b0ea00a8905896c60dfb30f44a_section_section-diagram-5bbf30b0ea00a8905896c60dfb30f44a-Activos-Públicos_label" value="Contains" style="edgeLabel;html=1;align=center;verticalAlign=middle;resizable=0;points=[];" vertex="1" connectable="0" parent="edge-L_publicFolder_robotsTxt_5_5bbf30b0ea00a8905896c60dfb30f44a_section_section-diagram-5bbf30b0ea00a8905896c60dfb30f44a-Activos-Públicos">
                  <mxGeometry x="-0.2" y="10" relative="1" as="geometry">
                    <mxPoint as="offset"/>
                  </mxGeometry>
                </mxCell>
<mxCell id="edge-report-section-5bbf30b0ea00a8905896c60dfb30f44a-5-to-section-diagram-5bbf30b0ea00a8905896c60dfb30f44a-Activos-Públicos-wrapper" style="edgeStyle=orthogonalEdgeStyle;rounded=1;orthogonalLoop=1;jettySize=auto;html=1;strokeColor=#808080;strokeWidth=2;jumpStyle=arc;jumpSize=10;spacing=15;labelBackgroundColor=white;labelBorderColor=none" edge="1" parent="1" source="report-section-5bbf30b0ea00a8905896c60dfb30f44a-5" target="section-diagram-5bbf30b0ea00a8905896c60dfb30f44a-Activos-Públicos-wrapper">
                  <mxGeometry relative="1" as="geometry"/>
                </mxCell>
                <mxCell id="edge-report-section-5bbf30b0ea00a8905896c60dfb30f44a-5-to-section-diagram-5bbf30b0ea00a8905896c60dfb30f44a-Activos-Públicos-wrapper_label" value="Diagram" style="edgeLabel;html=1;align=center;verticalAlign=middle;resizable=0;points=[];" vertex="1" connectable="0" parent="edge-report-section-5bbf30b0ea00a8905896c60dfb30f44a-5-to-section-diagram-5bbf30b0ea00a8905896c60dfb30f44a-Activos-Públicos-wrapper">
                  <mxGeometry x="-0.2" y="10" relative="1" as="geometry">
                    <mxPoint as="offset"/>
                  </mxGeometry>
                </mxCell>
<mxCell id="edge-search-result-5bbf30b0ea00a8905896c60dfb30f44a-to-report-section-5bbf30b0ea00a8905896c60dfb30f44a-0" style="edgeStyle=orthogonalEdgeStyle;rounded=1;orthogonalLoop=1;jettySize=auto;html=1;strokeColor=#808080;strokeWidth=2;jumpStyle=arc;jumpSize=10;spacing=15;labelBackgroundColor=white;labelBorderColor=none" edge="1" parent="1" source="search-result-5bbf30b0ea00a8905896c60dfb30f44a" target="report-section-5bbf30b0ea00a8905896c60dfb30f44a-0">
                  <mxGeometry relative="1" as="geometry"/>
                </mxCell>
<mxCell id="edge-report-section-5bbf30b0ea00a8905896c60dfb30f44a-0-to-report-section-5bbf30b0ea00a8905896c60dfb30f44a-1" style="edgeStyle=orthogonalEdgeStyle;rounded=1;orthogonalLoop=1;jettySize=auto;html=1;strokeColor=#808080;strokeWidth=2;jumpStyle=arc;jumpSize=10;spacing=15;labelBackgroundColor=white;labelBorderColor=none" edge="1" parent="1" source="report-section-5bbf30b0ea00a8905896c60dfb30f44a-0" target="report-section-5bbf30b0ea00a8905896c60dfb30f44a-1">
                  <mxGeometry relative="1" as="geometry"/>
                </mxCell>
<mxCell id="edge-report-section-5bbf30b0ea00a8905896c60dfb30f44a-0-to-report-section-5bbf30b0ea00a8905896c60dfb30f44a-2" style="edgeStyle=orthogonalEdgeStyle;rounded=1;orthogonalLoop=1;jettySize=auto;html=1;strokeColor=#808080;strokeWidth=2;jumpStyle=arc;jumpSize=10;spacing=15;labelBackgroundColor=white;labelBorderColor=none" edge="1" parent="1" source="report-section-5bbf30b0ea00a8905896c60dfb30f44a-0" target="report-section-5bbf30b0ea00a8905896c60dfb30f44a-2">
                  <mxGeometry relative="1" as="geometry"/>
                </mxCell>
<mxCell id="edge-report-section-5bbf30b0ea00a8905896c60dfb30f44a-0-to-report-section-5bbf30b0ea00a8905896c60dfb30f44a-3" style="edgeStyle=orthogonalEdgeStyle;rounded=1;orthogonalLoop=1;jettySize=auto;html=1;strokeColor=#808080;strokeWidth=2;jumpStyle=arc;jumpSize=10;spacing=15;labelBackgroundColor=white;labelBorderColor=none" edge="1" parent="1" source="report-section-5bbf30b0ea00a8905896c60dfb30f44a-0" target="report-section-5bbf30b0ea00a8905896c60dfb30f44a-3">
                  <mxGeometry relative="1" as="geometry"/>
                </mxCell>
<mxCell id="edge-report-section-5bbf30b0ea00a8905896c60dfb30f44a-0-to-report-section-5bbf30b0ea00a8905896c60dfb30f44a-4" style="edgeStyle=orthogonalEdgeStyle;rounded=1;orthogonalLoop=1;jettySize=auto;html=1;strokeColor=#808080;strokeWidth=2;jumpStyle=arc;jumpSize=10;spacing=15;labelBackgroundColor=white;labelBorderColor=none" edge="1" parent="1" source="report-section-5bbf30b0ea00a8905896c60dfb30f44a-0" target="report-section-5bbf30b0ea00a8905896c60dfb30f44a-4">
                  <mxGeometry relative="1" as="geometry"/>
                </mxCell>
<mxCell id="edge-report-section-5bbf30b0ea00a8905896c60dfb30f44a-0-to-report-section-5bbf30b0ea00a8905896c60dfb30f44a-5" style="edgeStyle=orthogonalEdgeStyle;rounded=1;orthogonalLoop=1;jettySize=auto;html=1;strokeColor=#808080;strokeWidth=2;jumpStyle=arc;jumpSize=10;spacing=15;labelBackgroundColor=white;labelBorderColor=none" edge="1" parent="1" source="report-section-5bbf30b0ea00a8905896c60dfb30f44a-0" target="report-section-5bbf30b0ea00a8905896c60dfb30f44a-5">
                  <mxGeometry relative="1" as="geometry"/>
                </mxCell>
            </root>
          </mxGraphModel>
        </diagram>
      </mxfile>